<svg id="venue" xmlns="http://www.w3.org/2000/svg" width="45" height="41" viewBox="0 0 45 41">
  <g id="Rectangle_112" data-name="Rectangle 112" fill="rgba(255,209,83,0.17)" stroke="#ffd153" stroke-width="1">
    <rect width="45" height="41" stroke="none"/>
    <rect x="0.5" y="0.5" width="44" height="40" fill="none"/>
  </g>
  <path id="venue-2" data-name="venue" d="M21.411,2.59a8.843,8.843,0,1,0-12.5,12.515l6.243,6.105,6.252-6.116a8.841,8.841,0,0,0,0-12.507ZM15.159,12.62a3.79,3.79,0,1,1,3.79-3.79A3.79,3.79,0,0,1,15.159,12.62ZM.969,22.74l8.023.013-.949,7.566H0l.019-2.111L.97,22.74Zm8.474-3.585-.134,1.071-7.9-.013,1.319-7.582H4.44a11.409,11.409,0,0,0,2.71,4.28l2.294,2.244Zm20.876,9.267v1.895H22.276l-.946-7.546,8.016.013.974,5.638ZM18.783,22.768l.947,7.549H10.59l.949-7.561,1.59,0,2.031,1.986,2.024-1.98,1.6,0Zm10.126-2.51-7.9-.013-.136-1.091L23.2,16.881a11.328,11.328,0,0,0,2.686-4.25h1.707l1.318,7.625Z" transform="translate(7.341 5.341)" fill="#ffd153"/>
</svg>
