<svg xmlns="http://www.w3.org/2000/svg" width="22" height="23.467" viewBox="0 0 22 23.467">
  <path id="address-book-regular" d="M48.133,2.2a.735.735,0,0,1,.733.733v17.6a.735.735,0,0,1-.733.733h-13.2a.735.735,0,0,1-.733-.733V2.933a.735.735,0,0,1,.733-.733ZM34.933,0A2.936,2.936,0,0,0,32,2.933v17.6a2.936,2.936,0,0,0,2.933,2.933h13.2a2.936,2.936,0,0,0,2.933-2.933V2.933A2.936,2.936,0,0,0,48.133,0Zm6.6,11.733A2.933,2.933,0,1,0,38.6,8.8,2.933,2.933,0,0,0,41.533,11.733ZM40.067,13.2A3.666,3.666,0,0,0,36.4,16.867a.735.735,0,0,0,.733.733h8.8a.735.735,0,0,0,.733-.733A3.666,3.666,0,0,0,43,13.2ZM54,3.667a.733.733,0,1,0-1.467,0V6.6A.733.733,0,1,0,54,6.6ZM53.267,8.8a.735.735,0,0,0-.733.733v2.933a.733.733,0,1,0,1.467,0V9.533A.735.735,0,0,0,53.267,8.8ZM54,15.4a.733.733,0,1,0-1.467,0v2.933a.733.733,0,1,0,1.467,0Z" transform="translate(-32)" fill="#5887b3"/>
</svg>
