<svg xmlns="http://www.w3.org/2000/svg" width="24" height="24" viewBox="0 0 24 24">
  <path id="calendar-star_9586191" d="M16.365,14.183a1.038,1.038,0,0,1-.566.866l-1.564.87.694,1.893a.887.887,0,0,1-.3,1.015h0a.887.887,0,0,1-1.075-.007L12,17.615l-1.556,1.2a.887.887,0,0,1-1.075.007h0a.887.887,0,0,1-.3-1.015l.694-1.893L8.2,15.046a1.038,1.038,0,0,1-.566-.866.708.708,0,0,1,.731-.676h2.251l.6-2.283a.816.816,0,0,1,1.584,0l.6,2.283h2.247A.707.707,0,0,1,16.365,14.183ZM18.5,2H18V1.5a1.5,1.5,0,1,0-3,0V2H9V1.5a1.5,1.5,0,1,0-3,0V2H5.5A5.506,5.506,0,0,0,0,7.5v11A5.506,5.506,0,0,0,5.5,24h13A5.506,5.506,0,0,0,24,18.5V7.5A5.506,5.506,0,0,0,18.5,2Zm0,19H5.5A2.5,2.5,0,0,1,3,18.5V9H21v9.5A2.5,2.5,0,0,1,18.5,21Z" fill="#5887b3"/>
</svg>
