<svg xmlns="http://www.w3.org/2000/svg" width="23" height="23" viewBox="0 0 23 23">
  <path id="coins_7928197" d="M15.813,0C11.782,0,8.625,1.895,8.625,4.313V6.792a12.282,12.282,0,0,0-1.437-.083C3.157,6.708,0,8.6,0,11.021v7.667C0,21.105,3.157,23,7.188,23c3.265,0,5.957-1.243,6.862-3a12.26,12.26,0,0,0,1.763.126c4.031,0,7.188-1.895,7.188-4.312V4.313C23,1.895,19.843,0,15.813,0Zm5.271,11.979c0,1.131-2.254,2.4-5.271,2.4a10.384,10.384,0,0,1-1.437-.1v-1.9a12.455,12.455,0,0,0,1.438.083,9.914,9.914,0,0,0,5.271-1.352Zm-19.167,2a9.914,9.914,0,0,0,5.271,1.352,9.914,9.914,0,0,0,5.271-1.352v.873c0,1.131-2.254,2.4-5.271,2.4s-5.271-1.265-5.271-2.4ZM21.083,8.146c0,1.131-2.254,2.4-5.271,2.4a10.389,10.389,0,0,1-1.5-.107,3.8,3.8,0,0,0-1.635-2.226,11.512,11.512,0,0,0,3.136.417,9.914,9.914,0,0,0,5.271-1.352ZM15.813,1.917c3.017,0,5.271,1.265,5.271,2.4s-2.254,2.4-5.271,2.4-5.271-1.265-5.271-2.4S12.8,1.917,15.813,1.917ZM7.188,8.625c3.017,0,5.271,1.265,5.271,2.4s-2.254,2.4-5.271,2.4-5.271-1.265-5.271-2.4S4.171,8.625,7.188,8.625Zm0,12.458c-3.017,0-5.271-1.265-5.271-2.4v-.873a9.914,9.914,0,0,0,5.271,1.352,9.914,9.914,0,0,0,5.271-1.352v.873C12.458,19.818,10.2,21.083,7.188,21.083Zm8.625-2.875a10.384,10.384,0,0,1-1.437-.1v-1.9a12.455,12.455,0,0,0,1.438.083,9.914,9.914,0,0,0,5.271-1.352v.873C21.083,16.943,18.829,18.208,15.813,18.208Z" fill="#5887b3"/>
</svg>
